<svg width="27" height="27" viewBox="0 0 27 27" fill="none" xmlns="http://www.w3.org/2000/svg">
<path d="M24.5312 11.2967H23.625V11.25H13.5V15.75H19.8579C18.9304 18.3696 16.4379 20.25 13.5 20.25C9.77231 20.25 6.75 17.2277 6.75 13.5C6.75 9.77231 9.77231 6.75 13.5 6.75C15.2207 6.75 16.7861 7.39912 17.9781 8.45944L21.1601 5.27737C19.1509 3.40481 16.4633 2.25 13.5 2.25C7.28719 2.25 2.25 7.28719 2.25 13.5C2.25 19.7128 7.28719 24.75 13.5 24.75C19.7128 24.75 24.75 19.7128 24.75 13.5C24.75 12.7457 24.6724 12.0094 24.5312 11.2967Z" fill="#3D3D3D"/>
<path d="M3.54688 8.26369L7.24306 10.9744C8.24319 8.49825 10.6653 6.75 13.4998 6.75C15.2204 6.75 16.7859 7.39913 17.9778 8.45944L21.1599 5.27738C19.1506 3.40481 16.463 2.25 13.4998 2.25C9.17863 2.25 5.43125 4.68956 3.54688 8.26369Z" fill="#3D3D3D"/>
<path d="M13.4997 24.7499C16.4056 24.7499 19.0459 23.6378 21.0423 21.8294L17.5604 18.883C16.3929 19.7709 14.9664 20.2511 13.4997 20.2499C10.5736 20.2499 8.089 18.3841 7.153 15.7803L3.48438 18.6068C5.34625 22.2501 9.12738 24.7499 13.4997 24.7499Z" fill="#3D3D3D"/>
<path d="M24.5312 11.2967H23.625V11.25H13.5V15.75H19.8579C19.4142 16.9967 18.615 18.0862 17.559 18.8837L17.5607 18.8826L21.0426 21.8289C20.7962 22.0528 24.75 19.125 24.75 13.5C24.75 12.7457 24.6724 12.0094 24.5312 11.2967Z" fill="#3D3D3D"/>
</svg>
