<svg width="24" height="24" viewBox="0 0 24 24" fill="none" xmlns="http://www.w3.org/2000/svg">
<g clip-path="url(#clip0_31_487)">
<path d="M20.4472 20.449H16.8911V14.8799C16.8911 13.552 16.8674 11.8424 15.0416 11.8424C13.1895 11.8424 12.9061 13.2894 12.9061 14.7833V20.4486H9.35017V8.99648H12.7639V10.5615H12.8117C13.1533 9.97739 13.647 9.49683 14.2402 9.17105C14.8333 8.84528 15.5037 8.68648 16.18 8.71157C19.7842 8.71157 20.4487 11.0823 20.4487 14.1665L20.4472 20.449ZM5.33767 7.43113C4.19795 7.43132 3.27386 6.50751 3.27367 5.36779C3.27348 4.22807 4.1972 3.30398 5.33692 3.30379C6.47664 3.30351 7.40073 4.22732 7.40092 5.36704C7.40102 5.91436 7.1837 6.4393 6.79677 6.82639C6.40984 7.21348 5.88499 7.43101 5.33767 7.43113ZM7.11573 20.4491H3.55595V8.99648H7.11564V20.449L7.11573 20.4491ZM22.22 0.00125846H1.76908C0.802516 -0.00961654 0.00985938 0.764665 -0.00195312 1.73123V22.2674C0.00948437 23.2345 0.802047 24.0095 1.76898 23.9994H22.22C23.189 24.0114 23.9846 23.2364 23.998 22.2674V1.72963C23.9843 0.761196 23.1885 -0.0129915 22.22 -0.000335291" fill="#3D3D3D"/>
</g>
<defs>
<clipPath id="clip0_31_487">
<rect width="24" height="24" fill="white"/>
</clipPath>
</defs>
</svg>
