<svg width="25" height="21" viewBox="0 0 25 21" fill="none" xmlns="http://www.w3.org/2000/svg">
<g clip-path="url(#clip0_31_485)">
<path d="M25 2.5571C24.0801 2.9768 23.0916 3.26045 22.0541 3.38806C23.1132 2.73495 23.9264 1.70073 24.3093 0.468457C23.3025 1.08317 22.201 1.51627 21.0523 1.74906C20.1167 0.723472 18.7838 0.0825195 17.3085 0.0825195C14.4759 0.0825195 12.1793 2.44537 12.1793 5.35965C12.1793 5.77332 12.2247 6.17604 12.3121 6.56238C8.04941 6.34223 4.27012 4.24132 1.74033 1.04852C1.29893 1.82793 1.046 2.73455 1.046 3.70155C1.046 5.53247 1.95156 7.14766 3.32773 8.09407C2.51323 8.06782 1.71665 7.84148 1.00449 7.43393C1.0042 7.45603 1.0042 7.47814 1.0042 7.50034C1.0042 10.0572 2.77217 12.1902 5.11846 12.675C4.36317 12.8863 3.57093 12.9173 2.80225 12.7654C3.45488 14.862 5.34912 16.3877 7.59346 16.4304C5.83809 17.8457 3.62646 18.6894 1.22354 18.6894C0.809473 18.6894 0.40127 18.6644 0 18.6157C2.26982 20.113 4.96582 20.9867 7.8623 20.9867C17.2966 20.9867 22.4555 12.9453 22.4555 5.97166C22.4555 5.74277 22.4506 5.51519 22.4406 5.28891C23.4448 4.54204 24.3114 3.61696 25 2.5571Z" fill="#3D3D3D"/>
</g>
<defs>
<clipPath id="clip0_31_485">
<rect width="25" height="21" fill="white"/>
</clipPath>
</defs>
</svg>
